<svg xmlns="http://www.w3.org/2000/svg" version="1.1" xmlns:xlink="http://www.w3.org/1999/xlink" xmlns:svgjs="http://svgjs.dev/svgjs" width="1000" height="1000" viewBox="0 0 1000 1000"><rect width="1000" height="1000" fill="#7a26c1"></rect><g transform="matrix(0.7,0,0,0.7,149.816049204666,199.24372469635625)"><svg viewBox="0 0 287 247" data-background-color="#7a26c1" preserveAspectRatio="xMidYMid meet" height="860" width="1000" xmlns="http://www.w3.org/2000/svg" xmlns:xlink="http://www.w3.org/1999/xlink"><g id="tight-bounds" transform="matrix(1,0,0,1,0.07541982608694298,-0.09999999999999432)"><svg viewBox="0 0 286.8491603478261 247.2" height="247.2" width="286.8491603478261"><g><svg viewBox="0 0 286.8491603478261 247.2" height="247.2" width="286.8491603478261"><g><svg viewBox="0 0 286.8491603478261 247.2" height="247.2" width="286.8491603478261"><g id="textblocktransform"><svg viewBox="0 0 286.8491603478261 247.2" height="247.2" width="286.8491603478261" id="textblock"><g><svg viewBox="0 0 286.8491603478261 247.2" height="247.2" width="286.8491603478261"><rect width="286.8491603478261" height="247.2" x="0" y="0" opacity="1" fill="#ffffff" data-fill-palette-color="tertiary"></rect><g transform="matrix(1,0,0,1,23.607599999999998,23.607599999999998)"><svg width="239.63396034782613" viewBox="4 -28.75 34.45000076293945 28.75" height="199.9848" data-palette-color="#7a26c1"><path d="M4-25.3L4-25.3 9.7-28.75 20-28.75 20-23.1 10.3-23.1 10.3-17.2 20-17.2 20-11.5 10.3-11.5 10.3 0 4 0 4-25.3ZM38.45-25.3L38.45-25.3 32.55-28.75 22.25-28.75 22.25-23.1 32.15-23.1 32.15-17.2 22.25-17.2 22.25-11.5 32.15-11.5 32.15 0 38.45 0 38.45-25.3Z" opacity="1" transform="matrix(1,0,0,1,0,0)" fill="#7a26c1" class="wordmark-text-0" data-fill-palette-color="quaternary" id="text-0"></path></svg></g></svg></g></svg></g></svg></g><g></g></svg></g><defs></defs></svg><rect width="286.8491603478261" height="247.2" fill="none" stroke="none" visibility="hidden"></rect></g></svg></g></svg>